<?xml version="1.0" encoding="UTF-8" standalone="no"?>
<!DOCTYPE svg PUBLIC "-//W3C//DTD SVG 1.1//EN"
 "http://www.w3.org/Graphics/SVG/1.1/DTD/svg11.dtd">
<!-- Generated by graphviz version 12.1.0 (20240811.2233)
 -->
<!-- Pages: 1 -->
<svg width="725pt" height="128pt"
 viewBox="0.00 0.00 725.25 128.00" xmlns="http://www.w3.org/2000/svg" xmlns:xlink="http://www.w3.org/1999/xlink">
<g id="graph0" class="graph" transform="scale(1 1) rotate(0) translate(4 124)">
<polygon fill="white" stroke="none" points="-4,4 -4,-124 721.25,-124 721.25,4 -4,4"/>
<!-- 2280617601040 -->
<g id="node1" class="node">
<title>2280617601040</title>
<polygon fill="none" stroke="black" points="633,-27.5 633,-63.5 717.25,-63.5 717.25,-27.5 633,-27.5"/>
<text text-anchor="middle" x="675.12" y="-40.7" font-family="Times New Roman,serif" font-size="14.00">data &#45;8.0000</text>
</g>
<!-- 2280617601040* -->
<g id="node2" class="node">
<title>2280617601040*</title>
<ellipse fill="none" stroke="black" cx="570" cy="-45.5" rx="27" ry="18"/>
<text text-anchor="middle" x="570" y="-40.45" font-family="Times New Roman,serif" font-size="14.00">*</text>
</g>
<!-- 2280617601040*&#45;&gt;2280617601040 -->
<g id="edge1" class="edge">
<title>2280617601040*&#45;&gt;2280617601040</title>
<path fill="none" stroke="black" d="M597.29,-45.5C604.67,-45.5 612.98,-45.5 621.32,-45.5"/>
<polygon fill="black" stroke="black" points="621.14,-49 631.14,-45.5 621.14,-42 621.14,-49"/>
</g>
<!-- 2280617597008 -->
<g id="node3" class="node">
<title>2280617597008</title>
<polygon fill="none" stroke="black" points="425,-55.5 425,-91.5 504.75,-91.5 504.75,-55.5 425,-55.5"/>
<text text-anchor="middle" x="464.88" y="-68.7" font-family="Times New Roman,serif" font-size="14.00">data 4.0000</text>
</g>
<!-- 2280617597008&#45;&gt;2280617601040* -->
<g id="edge8" class="edge">
<title>2280617597008&#45;&gt;2280617601040*</title>
<path fill="none" stroke="black" d="M505.16,-62.83C514.44,-60.31 524.29,-57.64 533.4,-55.17"/>
<polygon fill="black" stroke="black" points="534.26,-58.56 542.99,-52.56 532.42,-51.8 534.26,-58.56"/>
</g>
<!-- 2280617597008+ -->
<g id="node4" class="node">
<title>2280617597008+</title>
<ellipse fill="none" stroke="black" cx="359.75" cy="-73.5" rx="27" ry="18"/>
<text text-anchor="middle" x="359.75" y="-68.45" font-family="Times New Roman,serif" font-size="14.00">+</text>
</g>
<!-- 2280617597008+&#45;&gt;2280617597008 -->
<g id="edge2" class="edge">
<title>2280617597008+&#45;&gt;2280617597008</title>
<path fill="none" stroke="black" d="M387.04,-73.5C395.1,-73.5 404.25,-73.5 413.35,-73.5"/>
<polygon fill="black" stroke="black" points="413.26,-77 423.26,-73.5 413.26,-70 413.26,-77"/>
</g>
<!-- 2280617597072 -->
<g id="node5" class="node">
<title>2280617597072</title>
<polygon fill="none" stroke="black" points="422.75,-0.5 422.75,-36.5 507,-36.5 507,-0.5 422.75,-0.5"/>
<text text-anchor="middle" x="464.88" y="-13.7" font-family="Times New Roman,serif" font-size="14.00">data &#45;2.0000</text>
</g>
<!-- 2280617597072&#45;&gt;2280617601040* -->
<g id="edge6" class="edge">
<title>2280617597072&#45;&gt;2280617601040*</title>
<path fill="none" stroke="black" d="M507.23,-29.33C515.86,-31.59 524.88,-33.95 533.29,-36.15"/>
<polygon fill="black" stroke="black" points="532.24,-39.49 542.8,-38.64 534.01,-32.72 532.24,-39.49"/>
</g>
<!-- 2280617597840 -->
<g id="node6" class="node">
<title>2280617597840</title>
<polygon fill="none" stroke="black" points="0,-56.5 0,-92.5 84.25,-92.5 84.25,-56.5 0,-56.5"/>
<text text-anchor="middle" x="42.12" y="-69.7" font-family="Times New Roman,serif" font-size="14.00">data &#45;3.0000</text>
</g>
<!-- 2280617596304* -->
<g id="node9" class="node">
<title>2280617596304*</title>
<ellipse fill="none" stroke="black" cx="147.25" cy="-46.5" rx="27" ry="18"/>
<text text-anchor="middle" x="147.25" y="-41.45" font-family="Times New Roman,serif" font-size="14.00">*</text>
</g>
<!-- 2280617597840&#45;&gt;2280617596304* -->
<g id="edge4" class="edge">
<title>2280617597840&#45;&gt;2280617596304*</title>
<path fill="none" stroke="black" d="M84.48,-63.27C93.18,-60.91 102.29,-58.43 110.76,-56.14"/>
<polygon fill="black" stroke="black" points="111.62,-59.53 120.35,-53.53 109.78,-52.77 111.62,-59.53"/>
</g>
<!-- 2280617596624 -->
<g id="node7" class="node">
<title>2280617596624</title>
<polygon fill="none" stroke="black" points="210.25,-83.5 210.25,-119.5 296.75,-119.5 296.75,-83.5 210.25,-83.5"/>
<text text-anchor="middle" x="253.5" y="-96.7" font-family="Times New Roman,serif" font-size="14.00">data 10.0000</text>
</g>
<!-- 2280617596624&#45;&gt;2280617597008+ -->
<g id="edge5" class="edge">
<title>2280617596624&#45;&gt;2280617597008+</title>
<path fill="none" stroke="black" d="M297.2,-90.03C305.86,-87.7 314.88,-85.28 323.26,-83.03"/>
<polygon fill="black" stroke="black" points="323.98,-86.46 332.73,-80.49 322.17,-79.7 323.98,-86.46"/>
</g>
<!-- 2280617596304 -->
<g id="node8" class="node">
<title>2280617596304</title>
<polygon fill="none" stroke="black" points="211.38,-28.5 211.38,-64.5 295.62,-64.5 295.62,-28.5 211.38,-28.5"/>
<text text-anchor="middle" x="253.5" y="-41.7" font-family="Times New Roman,serif" font-size="14.00">data &#45;6.0000</text>
</g>
<!-- 2280617596304&#45;&gt;2280617597008+ -->
<g id="edge7" class="edge">
<title>2280617596304&#45;&gt;2280617597008+</title>
<path fill="none" stroke="black" d="M296,-57.25C305,-59.58 314.45,-62.03 323.19,-64.29"/>
<polygon fill="black" stroke="black" points="322.18,-67.64 332.73,-66.76 323.93,-60.87 322.18,-67.64"/>
</g>
<!-- 2280617596304*&#45;&gt;2280617596304 -->
<g id="edge3" class="edge">
<title>2280617596304*&#45;&gt;2280617596304</title>
<path fill="none" stroke="black" d="M174.56,-46.5C182.27,-46.5 191,-46.5 199.75,-46.5"/>
<polygon fill="black" stroke="black" points="199.67,-50 209.67,-46.5 199.67,-43 199.67,-50"/>
</g>
<!-- 2280617601488 -->
<g id="node10" class="node">
<title>2280617601488</title>
<polygon fill="none" stroke="black" points="2.25,-1.5 2.25,-37.5 82,-37.5 82,-1.5 2.25,-1.5"/>
<text text-anchor="middle" x="42.12" y="-14.7" font-family="Times New Roman,serif" font-size="14.00">data 2.0000</text>
</g>
<!-- 2280617601488&#45;&gt;2280617596304* -->
<g id="edge9" class="edge">
<title>2280617601488&#45;&gt;2280617596304*</title>
<path fill="none" stroke="black" d="M82.41,-29.78C91.69,-32.22 101.54,-34.79 110.65,-37.18"/>
<polygon fill="black" stroke="black" points="109.68,-40.54 120.24,-39.69 111.45,-33.77 109.68,-40.54"/>
</g>
</g>
</svg>
